<svg xmlns="http://www.w3.org/2000/svg" xmlns:xlink="http://www.w3.org/1999/xlink" width="75" viewBox="0 0 75 52.5" height="52.5" version="1.0"><defs><g id="a"><path d="M 6.75 -11.78125 C 6.007812 -12.125 5.273438 -12.21875 4.546875 -12.0625 C 4.066406 -11.957031 3.601562 -11.753906 3.15625 -11.453125 C 2.238281 -10.835938 1.425781 -10.035156 0.71875 -9.046875 C 0.0078125 -8.066406 -0.507812 -6.914062 -0.84375 -5.59375 C -0.96875 -5.144531 -1.015625 -4.671875 -0.984375 -4.171875 C -0.960938 -3.679688 -0.863281 -3.21875 -0.6875 -2.78125 C -0.65625 -2.6875 -0.617188 -2.609375 -0.578125 -2.546875 C -0.546875 -2.484375 -0.507812 -2.410156 -0.46875 -2.328125 C -0.101562 -1.578125 0.472656 -1.070312 1.265625 -0.8125 C 2.066406 -0.550781 3.046875 -0.546875 4.203125 -0.796875 C 4.273438 -0.804688 4.304688 -0.84375 4.296875 -0.90625 C 4.285156 -0.96875 4.242188 -0.992188 4.171875 -0.984375 C 3.128906 -0.765625 2.253906 -0.757812 1.546875 -0.96875 C 1.179688 -1.113281 0.875 -1.320312 0.625 -1.59375 C 0.382812 -1.875 0.179688 -2.191406 0.015625 -2.546875 C -0.109375 -2.816406 -0.203125 -3.117188 -0.265625 -3.453125 C -0.328125 -3.796875 -0.34375 -4.179688 -0.3125 -4.609375 C -0.289062 -5.035156 -0.203125 -5.503906 -0.046875 -6.015625 C 0.0976562 -6.535156 0.34375 -7.109375 0.6875 -7.734375 C 0.882812 -8.128906 1.132812 -8.539062 1.4375 -8.96875 C 1.738281 -9.394531 2.070312 -9.796875 2.4375 -10.171875 C 2.8125 -10.554688 3.207031 -10.890625 3.625 -11.171875 C 4.050781 -11.460938 4.484375 -11.65625 4.921875 -11.75 C 5.171875 -11.800781 5.421875 -11.816406 5.671875 -11.796875 C 5.929688 -11.785156 6.179688 -11.722656 6.421875 -11.609375 C 6.648438 -11.492188 6.820312 -11.335938 6.9375 -11.140625 C 7.0625 -10.941406 7.128906 -10.726562 7.140625 -10.5 C 7.148438 -10.28125 7.117188 -10.046875 7.046875 -9.796875 C 6.972656 -9.554688 6.851562 -9.335938 6.6875 -9.140625 C 6.65625 -9.097656 6.609375 -9.046875 6.546875 -8.984375 C 6.492188 -8.921875 6.453125 -8.863281 6.421875 -8.8125 C 6.390625 -8.757812 6.378906 -8.707031 6.390625 -8.65625 C 6.398438 -8.613281 6.453125 -8.582031 6.546875 -8.5625 C 6.609375 -8.550781 6.660156 -8.550781 6.703125 -8.5625 C 6.765625 -8.570312 6.847656 -8.609375 6.953125 -8.671875 C 7.222656 -8.878906 7.425781 -9.128906 7.5625 -9.421875 C 7.707031 -9.722656 7.769531 -10.023438 7.75 -10.328125 C 7.726562 -10.628906 7.640625 -10.910156 7.484375 -11.171875 C 7.328125 -11.429688 7.082031 -11.632812 6.75 -11.78125 Z M 6.75 -11.78125"/></g><g id="b"><path d="M 8.875 -12.203125 C 8.925781 -12.035156 8.945312 -11.875 8.9375 -11.71875 C 8.9375 -11.53125 8.914062 -11.34375 8.875 -11.15625 C 8.84375 -10.96875 8.789062 -10.785156 8.71875 -10.609375 C 8.539062 -10.109375 8.335938 -9.609375 8.109375 -9.109375 C 7.929688 -8.679688 7.738281 -8.253906 7.53125 -7.828125 C 7.320312 -7.410156 7.117188 -6.988281 6.921875 -6.5625 C 6.773438 -6.269531 6.617188 -5.976562 6.453125 -5.6875 C 6.296875 -5.40625 6.117188 -5.128906 5.921875 -4.859375 C 5.796875 -4.710938 5.71875 -4.566406 5.6875 -4.421875 C 5.65625 -4.285156 5.644531 -4.128906 5.65625 -3.953125 L 5.703125 -3.9375 C 5.703125 -3.9375 5.722656 -3.941406 5.765625 -3.953125 C 5.847656 -4.097656 5.941406 -4.242188 6.046875 -4.390625 C 6.148438 -4.535156 6.257812 -4.671875 6.375 -4.796875 C 6.5 -4.929688 6.628906 -5.050781 6.765625 -5.15625 C 6.910156 -5.257812 7.0625 -5.328125 7.21875 -5.359375 C 7.351562 -5.390625 7.476562 -5.390625 7.59375 -5.359375 C 7.863281 -5.285156 8.019531 -5.148438 8.0625 -4.953125 C 8.113281 -4.753906 8.113281 -4.523438 8.0625 -4.265625 C 8.019531 -4.003906 7.957031 -3.734375 7.875 -3.453125 C 7.800781 -3.171875 7.757812 -2.921875 7.75 -2.703125 C 7.75 -2.460938 7.804688 -2.265625 7.921875 -2.109375 C 8.210938 -1.953125 8.675781 -1.9375 9.3125 -2.0625 C 9.375 -2.082031 9.410156 -2.0625 9.421875 -2 C 9.429688 -1.9375 9.40625 -1.894531 9.34375 -1.875 C 8.65625 -1.738281 8.160156 -1.75 7.859375 -1.90625 C 7.734375 -1.957031 7.632812 -2.015625 7.5625 -2.078125 C 7.425781 -2.210938 7.332031 -2.363281 7.28125 -2.53125 C 7.238281 -2.695312 7.21875 -2.875 7.21875 -3.0625 C 7.21875 -3.257812 7.238281 -3.453125 7.28125 -3.640625 C 7.320312 -3.828125 7.359375 -4 7.390625 -4.15625 C 7.410156 -4.269531 7.425781 -4.382812 7.4375 -4.5 C 7.457031 -4.613281 7.46875 -4.722656 7.46875 -4.828125 C 7.488281 -4.960938 7.4375 -5.019531 7.3125 -5 C 7.207031 -4.976562 7.070312 -4.898438 6.90625 -4.765625 C 6.75 -4.640625 6.585938 -4.46875 6.421875 -4.25 C 6.253906 -4.03125 6.09375 -3.773438 5.9375 -3.484375 C 5.789062 -3.203125 5.6875 -2.898438 5.625 -2.578125 C 5.613281 -2.546875 5.601562 -2.503906 5.59375 -2.453125 C 5.582031 -2.398438 5.570312 -2.359375 5.5625 -2.328125 C 5.550781 -2.296875 5.535156 -2.269531 5.515625 -2.25 C 5.492188 -2.226562 5.472656 -2.222656 5.453125 -2.234375 C 5.359375 -2.234375 5.285156 -2.25 5.234375 -2.28125 C 5.191406 -2.320312 5.160156 -2.378906 5.140625 -2.453125 C 5.140625 -2.566406 5.132812 -2.671875 5.125 -2.765625 C 5.113281 -2.867188 5.109375 -2.976562 5.109375 -3.09375 C 5.097656 -3.195312 5.09375 -3.296875 5.09375 -3.390625 C 5.09375 -3.492188 5.070312 -3.582031 5.03125 -3.65625 C 4.957031 -3.613281 4.894531 -3.5625 4.84375 -3.5 C 4.789062 -3.445312 4.734375 -3.394531 4.671875 -3.34375 C 4.359375 -2.9375 4.023438 -2.550781 3.671875 -2.1875 C 3.328125 -1.832031 2.957031 -1.5 2.5625 -1.1875 C 2.175781 -0.882812 1.765625 -0.617188 1.328125 -0.390625 C 0.890625 -0.160156 0.429688 0.00390625 -0.046875 0.109375 C -0.109375 0.117188 -0.144531 0.09375 -0.15625 0.03125 C -0.164062 -0.03125 -0.140625 -0.0664062 -0.078125 -0.078125 C 0.429688 -0.191406 0.925781 -0.382812 1.40625 -0.65625 C 1.894531 -0.9375 2.351562 -1.265625 2.78125 -1.640625 C 3.21875 -2.015625 3.613281 -2.421875 3.96875 -2.859375 C 4.332031 -3.296875 4.640625 -3.734375 4.890625 -4.171875 C 5.046875 -4.347656 5.140625 -4.566406 5.171875 -4.828125 C 5.210938 -5.578125 5.300781 -6.320312 5.4375 -7.0625 C 5.570312 -7.8125 5.742188 -8.554688 5.953125 -9.296875 C 6.015625 -9.503906 6.101562 -9.796875 6.21875 -10.171875 C 6.34375 -10.546875 6.488281 -10.914062 6.65625 -11.28125 C 6.832031 -11.65625 7.023438 -11.988281 7.234375 -12.28125 C 7.453125 -12.582031 7.6875 -12.757812 7.9375 -12.8125 C 8.132812 -12.851562 8.320312 -12.8125 8.5 -12.6875 C 8.6875 -12.5625 8.8125 -12.398438 8.875 -12.203125 Z M 8.546875 -11.921875 C 8.523438 -12.078125 8.5 -12.191406 8.46875 -12.265625 C 8.445312 -12.335938 8.394531 -12.398438 8.3125 -12.453125 C 8.257812 -12.503906 8.191406 -12.523438 8.109375 -12.515625 C 8.078125 -12.503906 8.054688 -12.492188 8.046875 -12.484375 C 7.929688 -12.378906 7.820312 -12.265625 7.71875 -12.140625 C 7.613281 -12.015625 7.523438 -11.875 7.453125 -11.71875 C 7.035156 -10.78125 6.691406 -9.804688 6.421875 -8.796875 C 6.160156 -7.796875 5.953125 -6.785156 5.796875 -5.765625 C 5.796875 -5.710938 5.796875 -5.664062 5.796875 -5.625 C 5.804688 -5.59375 5.804688 -5.550781 5.796875 -5.5 C 5.804688 -5.488281 5.816406 -5.476562 5.828125 -5.46875 C 5.859375 -5.46875 5.898438 -5.507812 5.953125 -5.59375 C 6.015625 -5.6875 6.078125 -5.789062 6.140625 -5.90625 C 6.203125 -6.019531 6.257812 -6.125 6.3125 -6.21875 C 6.375 -6.320312 6.410156 -6.390625 6.421875 -6.421875 C 6.660156 -6.929688 6.894531 -7.4375 7.125 -7.9375 C 7.363281 -8.4375 7.609375 -8.945312 7.859375 -9.46875 C 8.035156 -9.875 8.179688 -10.273438 8.296875 -10.671875 C 8.421875 -11.066406 8.503906 -11.484375 8.546875 -11.921875 Z M 8.546875 -11.921875"/></g><g id="c"><path d="M 8.703125 -1.9375 C 8.765625 -1.957031 8.800781 -1.9375 8.8125 -1.875 C 8.820312 -1.8125 8.796875 -1.769531 8.734375 -1.75 C 8.515625 -1.707031 8.296875 -1.6875 8.078125 -1.6875 C 7.859375 -1.6875 7.648438 -1.71875 7.453125 -1.78125 C 7.265625 -1.851562 7.097656 -1.960938 6.953125 -2.109375 C 6.804688 -2.253906 6.695312 -2.441406 6.625 -2.671875 C 6.625 -2.691406 6.617188 -2.707031 6.609375 -2.71875 C 6.609375 -2.726562 6.601562 -2.742188 6.59375 -2.765625 C 6.570312 -2.828125 6.539062 -2.878906 6.5 -2.921875 C 6.46875 -2.941406 6.445312 -2.957031 6.4375 -2.96875 C 6.425781 -2.988281 6.410156 -2.992188 6.390625 -2.984375 C 6.378906 -2.984375 6.367188 -2.976562 6.359375 -2.96875 C 6.304688 -2.914062 6.257812 -2.863281 6.21875 -2.8125 C 6.175781 -2.769531 6.132812 -2.734375 6.09375 -2.703125 C 5.945312 -2.585938 5.796875 -2.472656 5.640625 -2.359375 C 5.484375 -2.253906 5.316406 -2.1875 5.140625 -2.15625 C 4.796875 -2.082031 4.46875 -2.164062 4.15625 -2.40625 C 4.144531 -2.414062 4.128906 -2.425781 4.109375 -2.4375 C 4.097656 -2.445312 4.085938 -2.460938 4.078125 -2.484375 C 4.003906 -2.503906 3.953125 -2.515625 3.921875 -2.515625 C 3.898438 -2.503906 3.878906 -2.484375 3.859375 -2.453125 C 3.398438 -1.898438 2.894531 -1.394531 2.34375 -0.9375 C 1.800781 -0.476562 1.164062 -0.171875 0.4375 -0.015625 C 0.351562 0.015625 0.273438 0.0351562 0.203125 0.046875 C 0.140625 0.0664062 0.0703125 0.0820312 0 0.09375 C -0.03125 0.101562 -0.0625 0.101562 -0.09375 0.09375 C -0.125 0.09375 -0.144531 0.0703125 -0.15625 0.03125 C -0.164062 -0.03125 -0.140625 -0.0664062 -0.078125 -0.078125 C -0.015625 -0.0859375 0.046875 -0.101562 0.109375 -0.125 C 0.179688 -0.144531 0.242188 -0.164062 0.296875 -0.1875 C 1.003906 -0.425781 1.617188 -0.75 2.140625 -1.15625 C 2.671875 -1.570312 3.148438 -2.082031 3.578125 -2.6875 C 3.703125 -2.894531 3.796875 -3.117188 3.859375 -3.359375 C 3.941406 -3.796875 4.132812 -4.164062 4.4375 -4.46875 C 4.75 -4.769531 5.117188 -4.96875 5.546875 -5.0625 C 5.867188 -5.125 6.175781 -5.070312 6.46875 -4.90625 C 6.476562 -4.90625 6.488281 -4.894531 6.5 -4.875 C 6.519531 -4.851562 6.523438 -4.832031 6.515625 -4.8125 C 6.523438 -4.800781 6.519531 -4.789062 6.5 -4.78125 C 6.476562 -4.769531 6.457031 -4.757812 6.4375 -4.75 C 6.382812 -4.738281 6.347656 -4.734375 6.328125 -4.734375 C 6.234375 -4.734375 6.148438 -4.734375 6.078125 -4.734375 C 6.015625 -4.742188 5.941406 -4.738281 5.859375 -4.71875 C 5.671875 -4.675781 5.476562 -4.59375 5.28125 -4.46875 C 5.082031 -4.34375 4.910156 -4.1875 4.765625 -4 C 4.617188 -3.8125 4.5 -3.613281 4.40625 -3.40625 C 4.3125 -3.207031 4.289062 -3 4.34375 -2.78125 C 4.375 -2.644531 4.445312 -2.535156 4.5625 -2.453125 C 4.675781 -2.367188 4.8125 -2.34375 4.96875 -2.375 C 5.03125 -2.382812 5.09375 -2.398438 5.15625 -2.421875 C 5.21875 -2.453125 5.28125 -2.484375 5.34375 -2.515625 C 5.90625 -2.847656 6.296875 -3.316406 6.515625 -3.921875 C 6.535156 -4.003906 6.5625 -4.085938 6.59375 -4.171875 C 6.625 -4.253906 6.660156 -4.34375 6.703125 -4.4375 C 6.742188 -4.5 6.773438 -4.546875 6.796875 -4.578125 C 6.804688 -4.585938 6.832031 -4.597656 6.875 -4.609375 C 6.9375 -4.617188 6.988281 -4.613281 7.03125 -4.59375 C 7.050781 -4.570312 7.066406 -4.546875 7.078125 -4.515625 C 7.097656 -4.492188 7.109375 -4.46875 7.109375 -4.4375 C 7.085938 -4.21875 7.046875 -4.019531 6.984375 -3.84375 C 6.921875 -3.539062 6.925781 -3.242188 7 -2.953125 C 7.070312 -2.640625 7.21875 -2.390625 7.4375 -2.203125 C 7.664062 -2.015625 7.941406 -1.914062 8.265625 -1.90625 C 8.335938 -1.894531 8.410156 -1.894531 8.484375 -1.90625 C 8.554688 -1.925781 8.628906 -1.9375 8.703125 -1.9375 Z M 8.703125 -1.9375"/></g><g id="d"><path d="M 7.625 -1.703125 C 7.6875 -1.710938 7.722656 -1.679688 7.734375 -1.609375 C 7.753906 -1.546875 7.734375 -1.507812 7.671875 -1.5 C 6.984375 -1.351562 6.445312 -1.394531 6.0625 -1.625 C 5.945312 -1.675781 5.859375 -1.726562 5.796875 -1.78125 C 5.578125 -1.925781 5.453125 -2.09375 5.421875 -2.28125 C 5.398438 -2.46875 5.378906 -2.597656 5.359375 -2.671875 C 5.335938 -2.785156 5.347656 -2.898438 5.390625 -3.015625 C 5.429688 -3.140625 5.421875 -3.257812 5.359375 -3.375 C 5.335938 -3.382812 5.273438 -3.40625 5.171875 -3.4375 C 5.078125 -3.476562 4.972656 -3.515625 4.859375 -3.546875 C 4.742188 -3.578125 4.609375 -3.613281 4.453125 -3.65625 C 4.410156 -3.644531 4.332031 -3.5625 4.21875 -3.40625 C 4.113281 -3.238281 4.007812 -3.070312 3.90625 -2.90625 C 3.800781 -2.75 3.6875 -2.59375 3.5625 -2.4375 C 3.550781 -2.414062 3.535156 -2.394531 3.515625 -2.375 C 3.503906 -2.351562 3.492188 -2.328125 3.484375 -2.296875 C 3.054688 -1.703125 2.550781 -1.1875 1.96875 -0.75 C 1.394531 -0.320312 0.742188 -0.03125 0.015625 0.125 C -0.078125 0.144531 -0.132812 0.117188 -0.15625 0.046875 C -0.164062 -0.015625 -0.140625 -0.0507812 -0.078125 -0.0625 C 0.671875 -0.21875 1.359375 -0.539062 1.984375 -1.03125 C 2.273438 -1.320312 2.519531 -1.582031 2.71875 -1.8125 C 2.925781 -2.050781 3.113281 -2.296875 3.28125 -2.546875 C 3.457031 -2.796875 3.617188 -3.066406 3.765625 -3.359375 C 3.910156 -3.648438 4.0625 -3.992188 4.21875 -4.390625 C 4.226562 -4.421875 4.238281 -4.453125 4.25 -4.484375 C 4.269531 -4.523438 4.285156 -4.566406 4.296875 -4.609375 C 4.328125 -4.691406 4.394531 -4.742188 4.5 -4.765625 C 4.53125 -4.773438 4.582031 -4.78125 4.65625 -4.78125 C 4.78125 -4.75 4.84375 -4.648438 4.84375 -4.484375 C 4.832031 -4.421875 4.820312 -4.351562 4.8125 -4.28125 C 4.8125 -4.21875 4.8125 -4.15625 4.8125 -4.09375 C 4.8125 -3.96875 4.851562 -3.863281 4.9375 -3.78125 C 5.03125 -3.707031 5.140625 -3.675781 5.265625 -3.6875 C 5.347656 -3.695312 5.410156 -3.707031 5.453125 -3.71875 C 5.503906 -3.726562 5.550781 -3.734375 5.59375 -3.734375 C 5.644531 -3.742188 5.695312 -3.742188 5.75 -3.734375 C 5.8125 -3.722656 5.878906 -3.695312 5.953125 -3.65625 C 6.015625 -3.613281 6.035156 -3.550781 6.015625 -3.46875 C 5.992188 -3.382812 5.984375 -3.289062 5.984375 -3.1875 C 5.972656 -3.0625 5.957031 -2.925781 5.9375 -2.78125 C 5.925781 -2.632812 5.925781 -2.5 5.9375 -2.375 C 5.957031 -2.25 6.003906 -2.132812 6.078125 -2.03125 C 6.160156 -1.925781 6.285156 -1.828125 6.453125 -1.734375 C 6.535156 -1.710938 6.597656 -1.691406 6.640625 -1.671875 C 6.679688 -1.660156 6.71875 -1.644531 6.75 -1.625 C 6.875 -1.613281 7.007812 -1.613281 7.15625 -1.625 C 7.300781 -1.632812 7.457031 -1.660156 7.625 -1.703125 Z M 7.625 -1.703125"/></g><g id="e"><path d="M 8.15625 -12.984375 C 8.457031 -12.910156 8.628906 -12.722656 8.671875 -12.421875 C 8.703125 -12.234375 8.691406 -11.988281 8.640625 -11.6875 C 8.597656 -11.382812 8.539062 -11.066406 8.46875 -10.734375 C 8.394531 -10.410156 8.304688 -10.097656 8.203125 -9.796875 C 8.109375 -9.503906 8.035156 -9.269531 7.984375 -9.09375 C 7.703125 -8.40625 7.414062 -7.71875 7.125 -7.03125 C 6.832031 -6.351562 6.472656 -5.71875 6.046875 -5.125 C 5.929688 -4.945312 5.878906 -4.757812 5.890625 -4.5625 C 5.898438 -4.3125 5.925781 -4.070312 5.96875 -3.84375 C 6.019531 -3.613281 6.097656 -3.382812 6.203125 -3.15625 C 6.328125 -2.894531 6.484375 -2.664062 6.671875 -2.46875 C 6.859375 -2.269531 7.082031 -2.101562 7.34375 -1.96875 C 7.375 -1.945312 7.40625 -1.925781 7.4375 -1.90625 C 7.476562 -1.882812 7.519531 -1.863281 7.5625 -1.84375 C 7.851562 -1.8125 8.164062 -1.828125 8.5 -1.890625 C 8.570312 -1.910156 8.613281 -1.890625 8.625 -1.828125 C 8.632812 -1.765625 8.601562 -1.722656 8.53125 -1.703125 C 7.769531 -1.546875 7.140625 -1.632812 6.640625 -1.96875 C 6.515625 -2.03125 6.390625 -2.125 6.265625 -2.25 C 6.148438 -2.375 6.035156 -2.515625 5.921875 -2.671875 C 5.816406 -2.828125 5.722656 -2.984375 5.640625 -3.140625 C 5.566406 -3.304688 5.515625 -3.457031 5.484375 -3.59375 C 5.421875 -3.769531 5.375 -3.878906 5.34375 -3.921875 C 5.03125 -3.503906 4.6875 -3.082031 4.3125 -2.65625 C 3.9375 -2.238281 3.519531 -1.84375 3.0625 -1.46875 C 2.613281 -1.101562 2.128906 -0.78125 1.609375 -0.5 C 1.097656 -0.21875 0.546875 -0.015625 -0.046875 0.109375 C -0.109375 0.117188 -0.144531 0.09375 -0.15625 0.03125 C -0.164062 -0.03125 -0.140625 -0.0664062 -0.078125 -0.078125 C 0.773438 -0.265625 1.554688 -0.601562 2.265625 -1.09375 C 2.972656 -1.59375 3.601562 -2.15625 4.15625 -2.78125 C 4.3125 -3 4.46875 -3.222656 4.625 -3.453125 C 4.78125 -3.691406 4.9375 -3.953125 5.09375 -4.234375 C 5.175781 -4.328125 5.222656 -4.414062 5.234375 -4.5 C 5.253906 -4.59375 5.257812 -4.71875 5.25 -4.875 C 5.238281 -5.03125 5.222656 -5.222656 5.203125 -5.453125 C 5.191406 -5.691406 5.1875 -5.992188 5.1875 -6.359375 C 5.175781 -6.984375 5.222656 -7.59375 5.328125 -8.1875 C 5.429688 -8.78125 5.566406 -9.375 5.734375 -9.96875 C 5.804688 -10.1875 5.898438 -10.457031 6.015625 -10.78125 C 6.128906 -11.101562 6.265625 -11.421875 6.421875 -11.734375 C 6.578125 -12.046875 6.757812 -12.320312 6.96875 -12.5625 C 7.175781 -12.8125 7.410156 -12.960938 7.671875 -13.015625 C 7.835938 -13.054688 8 -13.046875 8.15625 -12.984375 Z M 8.203125 -11.75 C 8.203125 -11.832031 8.203125 -11.921875 8.203125 -12.015625 C 8.203125 -12.109375 8.203125 -12.195312 8.203125 -12.28125 C 8.171875 -12.34375 8.148438 -12.394531 8.140625 -12.4375 C 8.128906 -12.476562 8.109375 -12.519531 8.078125 -12.5625 C 8.035156 -12.664062 7.96875 -12.707031 7.875 -12.6875 C 7.832031 -12.675781 7.800781 -12.664062 7.78125 -12.65625 C 7.71875 -12.570312 7.648438 -12.5 7.578125 -12.4375 C 7.515625 -12.375 7.460938 -12.304688 7.421875 -12.234375 C 7.210938 -11.921875 7.019531 -11.546875 6.84375 -11.109375 C 6.675781 -10.679688 6.53125 -10.238281 6.40625 -9.78125 C 6.289062 -9.332031 6.191406 -8.882812 6.109375 -8.4375 C 6.023438 -7.988281 5.957031 -7.566406 5.90625 -7.171875 C 5.882812 -6.984375 5.875 -6.796875 5.875 -6.609375 C 5.875 -6.421875 5.867188 -6.234375 5.859375 -6.046875 C 5.847656 -6.003906 5.847656 -5.96875 5.859375 -5.9375 C 5.878906 -5.90625 5.894531 -5.867188 5.90625 -5.828125 C 5.90625 -5.804688 5.914062 -5.796875 5.9375 -5.796875 C 5.976562 -5.773438 5.992188 -5.78125 5.984375 -5.8125 C 6.046875 -5.894531 6.101562 -5.972656 6.15625 -6.046875 C 6.207031 -6.117188 6.257812 -6.203125 6.3125 -6.296875 C 6.550781 -6.742188 6.765625 -7.195312 6.953125 -7.65625 C 7.140625 -8.125 7.320312 -8.585938 7.5 -9.046875 C 7.675781 -9.472656 7.828125 -9.910156 7.953125 -10.359375 C 8.078125 -10.816406 8.160156 -11.28125 8.203125 -11.75 Z M 8.203125 -11.75"/></g><g id="f"><path d="M 7.75 -1.734375 C 7.8125 -1.753906 7.847656 -1.734375 7.859375 -1.671875 C 7.867188 -1.609375 7.84375 -1.566406 7.78125 -1.546875 C 5.925781 -1.160156 4.71875 -1.28125 4.15625 -1.90625 C 4.03125 -1.988281 3.941406 -2.117188 3.890625 -2.296875 C 3.835938 -2.296875 3.78125 -2.253906 3.71875 -2.171875 C 3.65625 -2.097656 3.5625 -1.988281 3.4375 -1.84375 C 3.101562 -1.476562 2.726562 -1.171875 2.3125 -0.921875 C 1.945312 -0.648438 1.566406 -0.429688 1.171875 -0.265625 C 0.785156 -0.109375 0.378906 0.015625 -0.046875 0.109375 C -0.109375 0.117188 -0.144531 0.09375 -0.15625 0.03125 C -0.164062 -0.03125 -0.140625 -0.0664062 -0.078125 -0.078125 C -0.078125 -0.078125 -0.0546875 -0.0820312 -0.015625 -0.09375 C 0.410156 -0.1875 0.8125 -0.316406 1.1875 -0.484375 C 1.570312 -0.660156 1.925781 -0.875 2.25 -1.125 C 2.582031 -1.375 2.875 -1.644531 3.125 -1.9375 C 3.382812 -2.238281 3.582031 -2.550781 3.71875 -2.875 C 3.738281 -2.9375 3.753906 -3 3.765625 -3.0625 C 3.773438 -3.132812 3.796875 -3.207031 3.828125 -3.28125 C 3.941406 -3.71875 4.128906 -4.082031 4.390625 -4.375 C 4.660156 -4.664062 5.019531 -4.878906 5.46875 -5.015625 C 5.632812 -5.046875 5.789062 -5.0625 5.9375 -5.0625 C 6.09375 -5.070312 6.25 -5.03125 6.40625 -4.9375 C 6.800781 -4.75 6.957031 -4.4375 6.875 -4 C 6.832031 -3.675781 6.679688 -3.40625 6.421875 -3.1875 C 6.171875 -2.96875 5.910156 -2.820312 5.640625 -2.75 L 5.359375 -2.6875 C 5.234375 -2.65625 5.109375 -2.632812 4.984375 -2.625 C 4.867188 -2.613281 4.75 -2.613281 4.625 -2.625 C 4.59375 -2.632812 4.554688 -2.632812 4.515625 -2.625 C 4.390625 -2.59375 4.363281 -2.492188 4.4375 -2.328125 C 4.550781 -2.066406 4.695312 -1.882812 4.875 -1.78125 C 5.050781 -1.6875 5.265625 -1.609375 5.515625 -1.546875 C 5.796875 -1.515625 6.113281 -1.507812 6.46875 -1.53125 C 6.832031 -1.5625 7.257812 -1.628906 7.75 -1.734375 Z M 4.4375 -3.359375 C 4.351562 -3.140625 4.34375 -3.003906 4.40625 -2.953125 C 4.476562 -2.898438 4.601562 -2.867188 4.78125 -2.859375 C 4.820312 -2.867188 4.878906 -2.878906 4.953125 -2.890625 C 5.128906 -2.929688 5.304688 -3.003906 5.484375 -3.109375 C 5.671875 -3.210938 5.84375 -3.332031 6 -3.46875 C 6.15625 -3.613281 6.273438 -3.769531 6.359375 -3.9375 C 6.441406 -4.113281 6.460938 -4.304688 6.421875 -4.515625 C 6.398438 -4.609375 6.351562 -4.675781 6.28125 -4.71875 C 6.207031 -4.769531 6.117188 -4.789062 6.015625 -4.78125 L 5.875 -4.75 C 5.789062 -4.738281 5.710938 -4.71875 5.640625 -4.6875 C 5.566406 -4.664062 5.488281 -4.628906 5.40625 -4.578125 C 5.164062 -4.441406 4.96875 -4.265625 4.8125 -4.046875 C 4.664062 -3.828125 4.539062 -3.597656 4.4375 -3.359375 Z M 4.4375 -3.359375"/></g><g id="g"><path d="M 13.640625 -6.671875 C 13.703125 -6.691406 13.738281 -6.671875 13.75 -6.609375 C 13.769531 -6.523438 13.75 -6.472656 13.6875 -6.453125 C 13.332031 -6.378906 12.898438 -6.257812 12.390625 -6.09375 C 11.878906 -5.925781 11.335938 -5.726562 10.765625 -5.5 C 10.191406 -5.269531 9.609375 -5.007812 9.015625 -4.71875 C 8.421875 -4.425781 7.851562 -4.113281 7.3125 -3.78125 C 7.1875 -3.707031 7.066406 -3.617188 6.953125 -3.515625 C 6.847656 -3.421875 6.738281 -3.332031 6.625 -3.25 C 6.46875 -3.132812 6.410156 -2.976562 6.453125 -2.78125 C 6.460938 -2.632812 6.476562 -2.492188 6.5 -2.359375 C 6.53125 -2.234375 6.554688 -2.101562 6.578125 -1.96875 C 6.628906 -1.726562 6.640625 -1.488281 6.609375 -1.25 C 6.585938 -1.007812 6.53125 -0.785156 6.4375 -0.578125 C 6.34375 -0.367188 6.207031 -0.1875 6.03125 -0.03125 C 5.851562 0.113281 5.640625 0.21875 5.390625 0.28125 C 5.367188 0.269531 5.332031 0.269531 5.28125 0.28125 C 5.238281 0.289062 5.191406 0.296875 5.140625 0.296875 C 4.953125 0.296875 4.800781 0.25 4.6875 0.15625 C 4.570312 0.0703125 4.492188 -0.0546875 4.453125 -0.234375 C 4.398438 -0.492188 4.390625 -0.75 4.421875 -1 C 4.460938 -1.257812 4.535156 -1.5 4.640625 -1.71875 C 4.753906 -1.945312 4.890625 -2.164062 5.046875 -2.375 C 5.210938 -2.582031 5.394531 -2.773438 5.59375 -2.953125 C 5.75 -3.078125 5.78125 -3.25 5.6875 -3.46875 C 5.644531 -3.570312 5.601562 -3.664062 5.5625 -3.75 C 5.53125 -3.832031 5.488281 -3.925781 5.4375 -4.03125 C 5.394531 -4.082031 5.367188 -4.140625 5.359375 -4.203125 C 5.347656 -4.273438 5.296875 -4.3125 5.203125 -4.3125 L 5.15625 -4.265625 C 4.9375 -3.703125 4.648438 -3.175781 4.296875 -2.6875 C 3.953125 -2.195312 3.554688 -1.769531 3.109375 -1.40625 C 2.660156 -1.039062 2.164062 -0.726562 1.625 -0.46875 C 1.09375 -0.207031 0.535156 -0.015625 -0.046875 0.109375 C -0.109375 0.117188 -0.144531 0.09375 -0.15625 0.03125 C -0.164062 -0.03125 -0.140625 -0.0664062 -0.078125 -0.078125 C 0.492188 -0.203125 1.039062 -0.394531 1.5625 -0.65625 C 2.082031 -0.914062 2.5625 -1.238281 3 -1.625 C 3.414062 -2.070312 3.769531 -2.550781 4.0625 -3.0625 C 4.351562 -3.582031 4.617188 -4.117188 4.859375 -4.671875 C 4.878906 -4.734375 4.898438 -4.785156 4.921875 -4.828125 C 4.941406 -4.867188 4.960938 -4.910156 4.984375 -4.953125 C 5.054688 -5.023438 5.117188 -5.066406 5.171875 -5.078125 C 5.222656 -5.085938 5.273438 -5.070312 5.328125 -5.03125 C 5.390625 -5 5.445312 -4.953125 5.5 -4.890625 C 5.5625 -4.835938 5.613281 -4.78125 5.65625 -4.71875 C 5.695312 -4.65625 5.722656 -4.601562 5.734375 -4.5625 C 5.816406 -4.4375 5.894531 -4.296875 5.96875 -4.140625 C 6.039062 -3.992188 6.117188 -3.859375 6.203125 -3.734375 C 6.234375 -3.648438 6.269531 -3.613281 6.3125 -3.625 C 6.320312 -3.625 6.332031 -3.628906 6.34375 -3.640625 C 6.351562 -3.648438 6.363281 -3.65625 6.375 -3.65625 C 6.394531 -3.664062 6.421875 -3.675781 6.453125 -3.6875 C 6.484375 -3.695312 6.503906 -3.71875 6.515625 -3.75 C 6.910156 -4.039062 7.335938 -4.28125 7.796875 -4.46875 C 8.253906 -4.664062 8.710938 -4.851562 9.171875 -5.03125 C 10.023438 -5.425781 10.851562 -5.769531 11.65625 -6.0625 C 12.457031 -6.363281 13.117188 -6.566406 13.640625 -6.671875 Z M 6.078125 -0.921875 C 6.117188 -1.117188 6.132812 -1.3125 6.125 -1.5 C 6.113281 -1.6875 6.085938 -1.882812 6.046875 -2.09375 C 6.046875 -2.125 6.035156 -2.160156 6.015625 -2.203125 C 6.003906 -2.242188 5.992188 -2.289062 5.984375 -2.34375 C 5.953125 -2.4375 5.898438 -2.472656 5.828125 -2.453125 C 5.816406 -2.453125 5.796875 -2.429688 5.765625 -2.390625 C 5.460938 -2.109375 5.226562 -1.796875 5.0625 -1.453125 C 4.976562 -1.335938 4.921875 -1.210938 4.890625 -1.078125 C 4.859375 -0.941406 4.828125 -0.804688 4.796875 -0.671875 C 4.773438 -0.503906 4.796875 -0.320312 4.859375 -0.125 C 4.898438 -0.0078125 4.992188 0.0351562 5.140625 0.015625 C 5.429688 -0.046875 5.640625 -0.148438 5.765625 -0.296875 C 5.890625 -0.453125 5.992188 -0.660156 6.078125 -0.921875 Z M 6.078125 -0.921875"/></g><g id="h"><path d="M 10.296875 -11.8125 C 9.929688 -11.769531 9.578125 -11.726562 9.234375 -11.6875 C 8.898438 -11.65625 8.566406 -11.609375 8.234375 -11.546875 C 7.835938 -11.460938 7.382812 -11.351562 6.875 -11.21875 C 6.375 -11.082031 5.882812 -10.90625 5.40625 -10.6875 C 4.925781 -10.476562 4.492188 -10.222656 4.109375 -9.921875 C 3.722656 -9.617188 3.441406 -9.257812 3.265625 -8.84375 C 3.097656 -8.445312 3.101562 -8.046875 3.28125 -7.640625 C 3.5 -7.160156 3.785156 -6.835938 4.140625 -6.671875 C 4.492188 -6.503906 4.914062 -6.472656 5.40625 -6.578125 C 5.789062 -6.660156 6.125 -6.851562 6.40625 -7.15625 C 6.4375 -7.195312 6.460938 -7.234375 6.484375 -7.265625 C 6.515625 -7.304688 6.546875 -7.347656 6.578125 -7.390625 C 6.597656 -7.410156 6.617188 -7.414062 6.640625 -7.40625 C 6.660156 -7.394531 6.675781 -7.382812 6.6875 -7.375 C 6.707031 -7.363281 6.71875 -7.347656 6.71875 -7.328125 C 6.769531 -7.222656 6.773438 -7.117188 6.734375 -7.015625 C 6.691406 -6.910156 6.640625 -6.816406 6.578125 -6.734375 C 6.265625 -6.347656 5.894531 -6.109375 5.46875 -6.015625 C 5.175781 -5.960938 4.863281 -5.96875 4.53125 -6.03125 C 4.03125 -6.125 3.628906 -6.40625 3.328125 -6.875 C 2.941406 -7.476562 2.785156 -8.0625 2.859375 -8.625 C 2.941406 -9.195312 3.171875 -9.703125 3.546875 -10.140625 C 3.773438 -10.398438 4.0625 -10.640625 4.40625 -10.859375 C 4.757812 -11.078125 5.140625 -11.273438 5.546875 -11.453125 C 5.953125 -11.640625 6.351562 -11.796875 6.75 -11.921875 C 7.15625 -12.054688 7.519531 -12.15625 7.84375 -12.21875 C 7.957031 -12.25 8.078125 -12.273438 8.203125 -12.296875 C 8.328125 -12.316406 8.453125 -12.332031 8.578125 -12.34375 C 8.878906 -12.382812 9.175781 -12.421875 9.46875 -12.453125 C 9.757812 -12.484375 10.0625 -12.515625 10.375 -12.546875 C 10.476562 -12.554688 10.582031 -12.566406 10.6875 -12.578125 C 10.800781 -12.585938 10.914062 -12.597656 11.03125 -12.609375 C 11.09375 -12.609375 11.144531 -12.609375 11.1875 -12.609375 C 11.238281 -12.617188 11.28125 -12.628906 11.3125 -12.640625 C 11.382812 -12.648438 11.445312 -12.675781 11.5 -12.71875 C 11.550781 -12.769531 11.617188 -12.863281 11.703125 -13 C 11.878906 -13.238281 12.046875 -13.460938 12.203125 -13.671875 C 12.367188 -13.878906 12.539062 -14.0625 12.71875 -14.21875 C 12.894531 -14.382812 13.082031 -14.546875 13.28125 -14.703125 C 13.488281 -14.859375 13.722656 -15.007812 13.984375 -15.15625 C 14.066406 -15.226562 14.195312 -15.285156 14.375 -15.328125 C 14.425781 -15.335938 14.472656 -15.34375 14.515625 -15.34375 C 14.566406 -15.34375 14.617188 -15.34375 14.671875 -15.34375 C 14.691406 -15.351562 14.710938 -15.351562 14.734375 -15.34375 C 14.765625 -15.332031 14.789062 -15.316406 14.8125 -15.296875 C 14.84375 -15.285156 14.859375 -15.273438 14.859375 -15.265625 C 14.847656 -15.203125 14.835938 -15.171875 14.828125 -15.171875 C 14.460938 -15.035156 14.144531 -14.847656 13.875 -14.609375 C 13.601562 -14.367188 13.347656 -14.109375 13.109375 -13.828125 C 12.972656 -13.671875 12.84375 -13.507812 12.71875 -13.34375 C 12.601562 -13.1875 12.488281 -13.03125 12.375 -12.875 C 12.351562 -12.832031 12.347656 -12.785156 12.359375 -12.734375 C 12.378906 -12.703125 12.40625 -12.6875 12.4375 -12.6875 C 12.539062 -12.6875 12.644531 -12.6875 12.75 -12.6875 C 12.851562 -12.695312 12.953125 -12.703125 13.046875 -12.703125 C 13.410156 -12.734375 13.765625 -12.757812 14.109375 -12.78125 C 14.460938 -12.8125 14.828125 -12.835938 15.203125 -12.859375 C 15.648438 -12.898438 16.097656 -12.945312 16.546875 -13 C 16.992188 -13.0625 17.441406 -13.144531 17.890625 -13.25 C 18.703125 -13.414062 19.457031 -13.648438 20.15625 -13.953125 C 20.851562 -14.265625 21.535156 -14.671875 22.203125 -15.171875 C 22.253906 -15.203125 22.296875 -15.226562 22.328125 -15.25 C 22.359375 -15.28125 22.40625 -15.316406 22.46875 -15.359375 C 22.519531 -15.367188 22.566406 -15.351562 22.609375 -15.3125 C 22.660156 -15.300781 22.675781 -15.269531 22.65625 -15.21875 C 22.632812 -15.125 22.597656 -15.050781 22.546875 -15 C 22.265625 -14.675781 21.9375 -14.378906 21.5625 -14.109375 C 21.1875 -13.835938 20.796875 -13.597656 20.390625 -13.390625 C 19.984375 -13.191406 19.5625 -13.019531 19.125 -12.875 C 18.695312 -12.726562 18.269531 -12.609375 17.84375 -12.515625 C 17.175781 -12.367188 16.492188 -12.257812 15.796875 -12.1875 C 15.109375 -12.113281 14.425781 -12.0625 13.75 -12.03125 C 13.445312 -12.019531 13.148438 -12 12.859375 -11.96875 C 12.578125 -11.945312 12.289062 -11.9375 12 -11.9375 C 11.976562 -11.925781 11.960938 -11.921875 11.953125 -11.921875 C 11.941406 -11.929688 11.925781 -11.929688 11.90625 -11.921875 C 11.832031 -11.910156 11.769531 -11.847656 11.71875 -11.734375 C 11.039062 -10.316406 10.472656 -8.847656 10.015625 -7.328125 C 9.734375 -6.347656 9.457031 -5.367188 9.1875 -4.390625 C 8.914062 -3.410156 8.640625 -2.429688 8.359375 -1.453125 C 8.203125 -0.890625 8.003906 -0.320312 7.765625 0.25 C 7.535156 0.820312 7.242188 1.359375 6.890625 1.859375 C 6.535156 2.359375 6.117188 2.785156 5.640625 3.140625 C 5.171875 3.503906 4.632812 3.75 4.03125 3.875 C 3.8125 3.925781 3.578125 3.957031 3.328125 3.96875 C 3.078125 3.976562 2.816406 3.960938 2.546875 3.921875 C 2.285156 3.878906 2.035156 3.816406 1.796875 3.734375 C 1.554688 3.660156 1.34375 3.554688 1.15625 3.421875 C 0.832031 3.210938 0.585938 2.941406 0.421875 2.609375 C 0.265625 2.285156 0.234375 1.90625 0.328125 1.46875 C 0.535156 0.550781 1.082031 0 1.96875 -0.1875 C 2.15625 -0.226562 2.34375 -0.242188 2.53125 -0.234375 C 2.726562 -0.222656 2.910156 -0.1875 3.078125 -0.125 C 3.253906 -0.0703125 3.414062 0.0078125 3.5625 0.125 C 3.707031 0.25 3.820312 0.398438 3.90625 0.578125 C 3.914062 0.617188 3.90625 0.65625 3.875 0.6875 C 3.84375 0.726562 3.804688 0.75 3.765625 0.75 C 3.617188 0.757812 3.515625 0.722656 3.453125 0.640625 C 3.390625 0.585938 3.332031 0.53125 3.28125 0.46875 C 3.238281 0.40625 3.179688 0.347656 3.109375 0.296875 C 2.929688 0.140625 2.726562 0.0820312 2.5 0.125 C 2.46875 0.132812 2.4375 0.140625 2.40625 0.140625 C 2.375 0.140625 2.34375 0.140625 2.3125 0.140625 C 2.019531 0.203125 1.769531 0.332031 1.5625 0.53125 C 1.363281 0.726562 1.210938 0.953125 1.109375 1.203125 C 1.003906 1.453125 0.953125 1.710938 0.953125 1.984375 C 0.960938 2.253906 1.023438 2.503906 1.140625 2.734375 C 1.234375 2.929688 1.363281 3.085938 1.53125 3.203125 C 1.695312 3.328125 1.878906 3.421875 2.078125 3.484375 C 2.285156 3.546875 2.5 3.582031 2.71875 3.59375 C 2.9375 3.601562 3.144531 3.597656 3.34375 3.578125 C 3.382812 3.566406 3.429688 3.554688 3.484375 3.546875 C 3.546875 3.535156 3.609375 3.523438 3.671875 3.515625 C 4.078125 3.429688 4.457031 3.289062 4.8125 3.09375 C 5.175781 2.894531 5.488281 2.625 5.75 2.28125 C 6.195312 1.726562 6.570312 1.144531 6.875 0.53125 C 7.175781 -0.0703125 7.414062 -0.710938 7.59375 -1.390625 C 7.851562 -2.410156 8.125 -3.410156 8.40625 -4.390625 C 8.6875 -5.367188 8.96875 -6.351562 9.25 -7.34375 C 9.414062 -7.90625 9.585938 -8.445312 9.765625 -8.96875 C 9.941406 -9.488281 10.132812 -10.003906 10.34375 -10.515625 C 10.425781 -10.722656 10.515625 -10.921875 10.609375 -11.109375 C 10.703125 -11.296875 10.785156 -11.484375 10.859375 -11.671875 C 10.929688 -11.785156 10.898438 -11.835938 10.765625 -11.828125 C 10.679688 -11.835938 10.597656 -11.84375 10.515625 -11.84375 C 10.441406 -11.84375 10.367188 -11.832031 10.296875 -11.8125 Z M 10.296875 -11.8125"/></g><g id="i"><path d="M 16.21875 -9.59375 C 16.132812 -9.5625 16.054688 -9.535156 15.984375 -9.515625 C 15.910156 -9.503906 15.832031 -9.488281 15.75 -9.46875 C 15.457031 -9.414062 15.171875 -9.363281 14.890625 -9.3125 C 14.609375 -9.269531 14.28125 -9.210938 13.90625 -9.140625 C 13.445312 -9.035156 12.910156 -8.890625 12.296875 -8.703125 C 11.691406 -8.523438 10.941406 -8.253906 10.046875 -7.890625 C 9.972656 -7.847656 9.894531 -7.8125 9.8125 -7.78125 C 9.738281 -7.757812 9.675781 -7.707031 9.625 -7.625 C 9.675781 -7.539062 9.816406 -7.4375 10.046875 -7.3125 C 10.273438 -7.1875 10.515625 -7.019531 10.765625 -6.8125 C 11.015625 -6.601562 11.242188 -6.332031 11.453125 -6 C 11.671875 -5.675781 11.796875 -5.25 11.828125 -4.71875 C 11.847656 -4.15625 11.757812 -3.597656 11.5625 -3.046875 C 11.363281 -2.503906 11.085938 -1.988281 10.734375 -1.5 C 10.390625 -1.007812 9.972656 -0.546875 9.484375 -0.109375 C 9.003906 0.316406 8.484375 0.695312 7.921875 1.03125 C 7.367188 1.375 6.789062 1.664062 6.1875 1.90625 C 5.59375 2.144531 5.007812 2.328125 4.4375 2.453125 C 3.78125 2.585938 3.148438 2.640625 2.546875 2.609375 C 1.953125 2.585938 1.4375 2.457031 1 2.21875 C 0.738281 2.070312 0.523438 1.882812 0.359375 1.65625 C 0.191406 1.425781 0.078125 1.171875 0.015625 0.890625 C -0.0351562 0.617188 -0.046875 0.335938 -0.015625 0.046875 C 0.00390625 -0.234375 0.0664062 -0.515625 0.171875 -0.796875 C 0.347656 -1.273438 0.632812 -1.753906 1.03125 -2.234375 C 1.425781 -2.722656 1.867188 -3.195312 2.359375 -3.65625 C 2.847656 -4.113281 3.347656 -4.535156 3.859375 -4.921875 C 4.367188 -5.316406 4.832031 -5.65625 5.25 -5.9375 C 5.851562 -6.332031 6.367188 -6.644531 6.796875 -6.875 C 7.234375 -7.101562 7.5625 -7.28125 7.78125 -7.40625 C 8 -7.53125 8.101562 -7.613281 8.09375 -7.65625 C 8.09375 -7.707031 7.957031 -7.753906 7.6875 -7.796875 C 7.164062 -7.859375 6.617188 -7.875 6.046875 -7.84375 C 5.484375 -7.820312 4.929688 -7.800781 4.390625 -7.78125 C 3.847656 -7.757812 3.34375 -7.765625 2.875 -7.796875 C 2.40625 -7.835938 1.988281 -7.953125 1.625 -8.140625 C 1.257812 -8.335938 1.046875 -8.582031 0.984375 -8.875 C 0.929688 -9.164062 0.972656 -9.476562 1.109375 -9.8125 C 1.253906 -10.15625 1.488281 -10.5 1.8125 -10.84375 C 2.144531 -11.195312 2.515625 -11.535156 2.921875 -11.859375 C 3.335938 -12.179688 3.769531 -12.472656 4.21875 -12.734375 C 4.675781 -12.992188 5.113281 -13.1875 5.53125 -13.3125 C 5.8125 -13.40625 6.140625 -13.492188 6.515625 -13.578125 C 6.921875 -13.660156 7.363281 -13.726562 7.84375 -13.78125 C 8.320312 -13.84375 8.789062 -13.867188 9.25 -13.859375 C 9.71875 -13.847656 10.15625 -13.800781 10.5625 -13.71875 C 10.96875 -13.644531 11.304688 -13.519531 11.578125 -13.34375 C 11.847656 -13.175781 12.019531 -12.972656 12.09375 -12.734375 C 12.164062 -12.492188 12.179688 -12.265625 12.140625 -12.046875 C 12.109375 -11.828125 12.046875 -11.632812 11.953125 -11.46875 C 11.859375 -11.3125 11.773438 -11.226562 11.703125 -11.21875 C 11.679688 -11.207031 11.65625 -11.210938 11.625 -11.234375 C 11.582031 -11.273438 11.554688 -11.3125 11.546875 -11.34375 C 11.546875 -11.375 11.550781 -11.414062 11.5625 -11.46875 C 11.570312 -11.519531 11.59375 -11.578125 11.625 -11.640625 C 11.664062 -11.710938 11.691406 -11.816406 11.703125 -11.953125 C 11.765625 -12.265625 11.742188 -12.523438 11.640625 -12.734375 C 11.546875 -12.941406 11.390625 -13.101562 11.171875 -13.21875 C 10.953125 -13.34375 10.691406 -13.425781 10.390625 -13.46875 C 10.097656 -13.507812 9.773438 -13.523438 9.421875 -13.515625 C 9.078125 -13.515625 8.726562 -13.492188 8.375 -13.453125 C 8.03125 -13.410156 7.707031 -13.363281 7.40625 -13.3125 L 7.125 -13.25 C 6.457031 -13.101562 5.816406 -12.882812 5.203125 -12.59375 C 4.585938 -12.300781 4.035156 -11.972656 3.546875 -11.609375 C 3.066406 -11.242188 2.664062 -10.863281 2.34375 -10.46875 C 2.03125 -10.082031 1.820312 -9.722656 1.71875 -9.390625 C 1.613281 -9.066406 1.640625 -8.785156 1.796875 -8.546875 C 1.960938 -8.316406 2.285156 -8.175781 2.765625 -8.125 C 3.046875 -8.101562 3.328125 -8.09375 3.609375 -8.09375 C 3.898438 -8.09375 4.195312 -8.097656 4.5 -8.109375 C 5.164062 -8.148438 5.820312 -8.171875 6.46875 -8.171875 C 6.875 -8.179688 7.207031 -8.171875 7.46875 -8.140625 C 7.726562 -8.109375 7.9375 -8.078125 8.09375 -8.046875 C 8.257812 -8.015625 8.398438 -7.984375 8.515625 -7.953125 C 8.628906 -7.921875 8.742188 -7.921875 8.859375 -7.953125 C 8.898438 -7.960938 8.96875 -7.992188 9.0625 -8.046875 C 9.8125 -8.378906 10.570312 -8.65625 11.34375 -8.875 C 12.113281 -9.101562 12.832031 -9.285156 13.5 -9.421875 C 14.1875 -9.566406 14.769531 -9.671875 15.25 -9.734375 C 15.738281 -9.796875 16.046875 -9.816406 16.171875 -9.796875 C 16.242188 -9.785156 16.296875 -9.753906 16.328125 -9.703125 C 16.347656 -9.679688 16.34375 -9.65625 16.3125 -9.625 C 16.28125 -9.601562 16.25 -9.59375 16.21875 -9.59375 Z M 0.6875 1.09375 C 0.78125 1.4375 0.945312 1.691406 1.1875 1.859375 C 1.4375 2.023438 1.722656 2.128906 2.046875 2.171875 C 2.378906 2.222656 2.734375 2.234375 3.109375 2.203125 C 3.484375 2.171875 3.84375 2.125 4.1875 2.0625 C 4.738281 1.945312 5.300781 1.757812 5.875 1.5 C 6.457031 1.25 7.019531 0.941406 7.5625 0.578125 C 8.113281 0.222656 8.617188 -0.175781 9.078125 -0.625 C 9.546875 -1.082031 9.945312 -1.566406 10.28125 -2.078125 C 10.613281 -2.585938 10.84375 -3.117188 10.96875 -3.671875 C 11.101562 -4.222656 11.117188 -4.785156 11.015625 -5.359375 C 10.921875 -5.796875 10.757812 -6.140625 10.53125 -6.390625 C 10.300781 -6.648438 10.003906 -6.894531 9.640625 -7.125 C 9.453125 -7.238281 9.3125 -7.3125 9.21875 -7.34375 C 9.132812 -7.382812 9.046875 -7.394531 8.953125 -7.375 C 8.847656 -7.351562 8.6875 -7.289062 8.46875 -7.1875 C 8.007812 -6.9375 7.476562 -6.628906 6.875 -6.265625 C 6.28125 -5.898438 5.664062 -5.492188 5.03125 -5.046875 C 4.40625 -4.597656 3.800781 -4.125 3.21875 -3.625 C 2.644531 -3.125 2.144531 -2.601562 1.71875 -2.0625 C 1.300781 -1.53125 0.988281 -0.992188 0.78125 -0.453125 C 0.582031 0.0859375 0.550781 0.601562 0.6875 1.09375 Z M 0.6875 1.09375"/></g><g id="j"><path d="M 6.421875 -4.953125 C 6.660156 -4.835938 6.796875 -4.660156 6.828125 -4.421875 C 6.847656 -4.316406 6.847656 -4.222656 6.828125 -4.140625 C 6.816406 -4.054688 6.789062 -3.96875 6.75 -3.875 C 6.71875 -3.789062 6.671875 -3.742188 6.609375 -3.734375 C 6.578125 -3.722656 6.554688 -3.722656 6.546875 -3.734375 C 6.460938 -3.765625 6.429688 -3.828125 6.453125 -3.921875 C 6.453125 -4.003906 6.453125 -4.082031 6.453125 -4.15625 C 6.460938 -4.238281 6.46875 -4.320312 6.46875 -4.40625 C 6.457031 -4.550781 6.390625 -4.664062 6.265625 -4.75 C 6.140625 -4.832031 6.007812 -4.851562 5.875 -4.8125 C 5.625 -4.75 5.382812 -4.628906 5.15625 -4.453125 C 4.925781 -4.285156 4.726562 -4.082031 4.5625 -3.84375 C 4.394531 -3.601562 4.269531 -3.347656 4.1875 -3.078125 C 4.101562 -2.816406 4.085938 -2.5625 4.140625 -2.3125 C 4.179688 -2.113281 4.269531 -1.941406 4.40625 -1.796875 C 4.507812 -1.722656 4.632812 -1.65625 4.78125 -1.59375 C 4.925781 -1.539062 5.101562 -1.5 5.3125 -1.46875 C 5.53125 -1.4375 5.785156 -1.429688 6.078125 -1.453125 C 6.378906 -1.472656 6.722656 -1.523438 7.109375 -1.609375 C 7.171875 -1.617188 7.207031 -1.59375 7.21875 -1.53125 C 7.226562 -1.46875 7.203125 -1.429688 7.140625 -1.421875 C 6.929688 -1.367188 6.734375 -1.328125 6.546875 -1.296875 C 6.359375 -1.273438 6.171875 -1.257812 5.984375 -1.25 C 5.816406 -1.226562 5.632812 -1.21875 5.4375 -1.21875 C 5.25 -1.21875 5.054688 -1.238281 4.859375 -1.28125 C 4.671875 -1.320312 4.492188 -1.382812 4.328125 -1.46875 C 4.160156 -1.5625 4.019531 -1.679688 3.90625 -1.828125 C 3.851562 -1.867188 3.8125 -1.925781 3.78125 -2 C 3.75 -2.070312 3.695312 -2.101562 3.625 -2.09375 C 3.582031 -2.082031 3.535156 -2.039062 3.484375 -1.96875 C 3.429688 -1.90625 3.382812 -1.851562 3.34375 -1.8125 C 3.257812 -1.738281 3.1875 -1.671875 3.125 -1.609375 C 3.0625 -1.554688 3 -1.492188 2.9375 -1.421875 C 2.78125 -1.273438 2.601562 -1.125 2.40625 -0.96875 C 2.207031 -0.820312 2 -0.6875 1.78125 -0.5625 C 1.5625 -0.4375 1.335938 -0.320312 1.109375 -0.21875 C 0.878906 -0.125 0.660156 -0.0546875 0.453125 -0.015625 C 0.378906 0.015625 0.304688 0.0351562 0.234375 0.046875 C 0.171875 0.0546875 0.0976562 0.0703125 0.015625 0.09375 L -0.046875 0.109375 C -0.109375 0.117188 -0.144531 0.09375 -0.15625 0.03125 C -0.164062 -0.03125 -0.140625 -0.0664062 -0.078125 -0.078125 C -0.0546875 -0.0976562 -0.0390625 -0.101562 -0.03125 -0.09375 C -0.03125 -0.09375 -0.0234375 -0.09375 -0.015625 -0.09375 C 0.492188 -0.195312 0.972656 -0.363281 1.421875 -0.59375 C 1.867188 -0.832031 2.273438 -1.109375 2.640625 -1.421875 C 2.796875 -1.585938 2.953125 -1.753906 3.109375 -1.921875 C 3.265625 -2.097656 3.40625 -2.28125 3.53125 -2.46875 C 3.550781 -2.550781 3.566406 -2.644531 3.578125 -2.75 C 3.597656 -2.851562 3.617188 -2.957031 3.640625 -3.0625 C 3.679688 -3.257812 3.753906 -3.453125 3.859375 -3.640625 C 3.972656 -3.835938 4.113281 -4.019531 4.28125 -4.1875 C 4.445312 -4.351562 4.617188 -4.503906 4.796875 -4.640625 C 4.972656 -4.785156 5.148438 -4.898438 5.328125 -4.984375 C 5.378906 -5.015625 5.425781 -5.035156 5.46875 -5.046875 C 5.519531 -5.054688 5.570312 -5.066406 5.625 -5.078125 C 5.882812 -5.128906 6.148438 -5.085938 6.421875 -4.953125 Z M 6.421875 -4.953125"/></g><g id="k"><path d="M 8.734375 -1.953125 C 8.796875 -1.960938 8.832031 -1.9375 8.84375 -1.875 C 8.851562 -1.8125 8.828125 -1.773438 8.765625 -1.765625 C 8.503906 -1.703125 8.25 -1.664062 8 -1.65625 C 7.757812 -1.65625 7.519531 -1.671875 7.28125 -1.703125 C 6.894531 -1.722656 6.519531 -1.820312 6.15625 -2 C 6.039062 -2.070312 5.929688 -2.117188 5.828125 -2.140625 C 5.734375 -2.171875 5.613281 -2.175781 5.46875 -2.15625 C 5.050781 -2.070312 4.65625 -2.171875 4.28125 -2.453125 C 4.226562 -2.492188 4.191406 -2.515625 4.171875 -2.515625 C 4.128906 -2.503906 4.085938 -2.472656 4.046875 -2.421875 C 3.804688 -2.066406 3.535156 -1.753906 3.234375 -1.484375 C 2.941406 -1.222656 2.617188 -0.988281 2.265625 -0.78125 C 1.921875 -0.570312 1.554688 -0.394531 1.171875 -0.25 C 0.785156 -0.101562 0.398438 0.0078125 0.015625 0.09375 C -0.015625 0.101562 -0.046875 0.109375 -0.078125 0.109375 C -0.117188 0.109375 -0.144531 0.0820312 -0.15625 0.03125 C -0.164062 -0.03125 -0.140625 -0.0664062 -0.078125 -0.078125 C 0.328125 -0.160156 0.738281 -0.285156 1.15625 -0.453125 C 1.570312 -0.628906 1.96875 -0.847656 2.34375 -1.109375 C 2.507812 -1.234375 2.664062 -1.378906 2.8125 -1.546875 C 2.96875 -1.710938 3.128906 -1.910156 3.296875 -2.140625 C 3.484375 -2.390625 3.632812 -2.597656 3.75 -2.765625 C 3.863281 -2.929688 3.953125 -3.066406 4.015625 -3.171875 C 4.078125 -3.285156 4.125 -3.363281 4.15625 -3.40625 C 4.195312 -3.445312 4.25 -3.484375 4.3125 -3.515625 C 4.332031 -3.523438 4.367188 -3.535156 4.421875 -3.546875 C 4.515625 -3.566406 4.582031 -3.566406 4.625 -3.546875 C 4.675781 -3.492188 4.703125 -3.421875 4.703125 -3.328125 C 4.679688 -3.171875 4.660156 -3.054688 4.640625 -2.984375 C 4.628906 -2.921875 4.640625 -2.832031 4.671875 -2.71875 C 4.703125 -2.550781 4.773438 -2.457031 4.890625 -2.4375 C 5.015625 -2.414062 5.144531 -2.40625 5.28125 -2.40625 C 5.289062 -2.40625 5.300781 -2.414062 5.3125 -2.4375 C 5.320312 -2.46875 5.328125 -2.492188 5.328125 -2.515625 C 5.285156 -2.566406 5.238281 -2.617188 5.1875 -2.671875 C 5.144531 -2.722656 5.109375 -2.78125 5.078125 -2.84375 C 4.953125 -3.03125 4.875 -3.226562 4.84375 -3.4375 C 4.8125 -3.65625 4.820312 -3.863281 4.875 -4.0625 C 4.925781 -4.269531 5.015625 -4.46875 5.140625 -4.65625 C 5.265625 -4.84375 5.421875 -4.988281 5.609375 -5.09375 C 5.734375 -5.144531 5.859375 -5.1875 5.984375 -5.21875 C 6.398438 -5.300781 6.75 -5.179688 7.03125 -4.859375 C 7.238281 -4.640625 7.328125 -4.382812 7.296875 -4.09375 C 7.242188 -3.800781 7.160156 -3.523438 7.046875 -3.265625 C 6.941406 -3.003906 6.757812 -2.773438 6.5 -2.578125 C 6.476562 -2.546875 6.445312 -2.515625 6.40625 -2.484375 C 6.375 -2.460938 6.347656 -2.445312 6.328125 -2.4375 C 6.285156 -2.40625 6.269531 -2.367188 6.28125 -2.328125 C 6.289062 -2.296875 6.316406 -2.269531 6.359375 -2.25 C 6.429688 -2.207031 6.492188 -2.171875 6.546875 -2.140625 C 6.597656 -2.109375 6.65625 -2.070312 6.71875 -2.03125 C 7.332031 -1.84375 8.003906 -1.816406 8.734375 -1.953125 Z M 5.5 -3.328125 C 5.507812 -3.140625 5.578125 -2.960938 5.703125 -2.796875 C 5.742188 -2.734375 5.804688 -2.710938 5.890625 -2.734375 C 5.910156 -2.734375 5.9375 -2.75 5.96875 -2.78125 C 6.34375 -3.207031 6.570312 -3.707031 6.65625 -4.28125 C 6.664062 -4.351562 6.664062 -4.421875 6.65625 -4.484375 C 6.65625 -4.554688 6.660156 -4.625 6.671875 -4.6875 C 6.640625 -4.707031 6.617188 -4.734375 6.609375 -4.765625 C 6.609375 -4.796875 6.597656 -4.828125 6.578125 -4.859375 C 6.546875 -4.921875 6.5 -4.953125 6.4375 -4.953125 C 6.382812 -4.960938 6.328125 -4.960938 6.265625 -4.953125 C 6.066406 -4.859375 5.894531 -4.703125 5.75 -4.484375 C 5.550781 -4.128906 5.46875 -3.742188 5.5 -3.328125 Z M 5.5 -3.328125"/></g></defs><g><use x="9.14" y="20.928" xmlns:xlink="http://www.w3.org/1999/xlink" xlink:href="#a" xlink:type="simple" xlink:actuate="onLoad" xlink:show="embed"/></g><g><use x="12.333" y="20.251" xmlns:xlink="http://www.w3.org/1999/xlink" xlink:href="#b" xlink:type="simple" xlink:actuate="onLoad" xlink:show="embed"/></g><g><use x="20.637" y="18.493" xmlns:xlink="http://www.w3.org/1999/xlink" xlink:href="#c" xlink:type="simple" xlink:actuate="onLoad" xlink:show="embed"/></g><g><use x="28.364" y="16.856" xmlns:xlink="http://www.w3.org/1999/xlink" xlink:href="#d" xlink:type="simple" xlink:actuate="onLoad" xlink:show="embed"/></g><g><use x="35.016" y="15.447" xmlns:xlink="http://www.w3.org/1999/xlink" xlink:href="#e" xlink:type="simple" xlink:actuate="onLoad" xlink:show="embed"/></g><g><use x="42.51" y="13.86" xmlns:xlink="http://www.w3.org/1999/xlink" xlink:href="#f" xlink:type="simple" xlink:actuate="onLoad" xlink:show="embed"/></g><g><use x="49.286" y="12.424" xmlns:xlink="http://www.w3.org/1999/xlink" xlink:href="#g" xlink:type="simple" xlink:actuate="onLoad" xlink:show="embed"/></g><g><use x="26.406" y="30.18" xmlns:xlink="http://www.w3.org/1999/xlink" xlink:href="#h" xlink:type="simple" xlink:actuate="onLoad" xlink:show="embed"/></g><g><use x="33.697" y="28.636" xmlns:xlink="http://www.w3.org/1999/xlink" xlink:href="#b" xlink:type="simple" xlink:actuate="onLoad" xlink:show="embed"/></g><g><use x="42.001" y="26.877" xmlns:xlink="http://www.w3.org/1999/xlink" xlink:href="#f" xlink:type="simple" xlink:actuate="onLoad" xlink:show="embed"/></g><g><use x="13.125" y="45.903" xmlns:xlink="http://www.w3.org/1999/xlink" xlink:href="#i" xlink:type="simple" xlink:actuate="onLoad" xlink:show="embed"/></g><g><use x="23.251" y="43.759" xmlns:xlink="http://www.w3.org/1999/xlink" xlink:href="#j" xlink:type="simple" xlink:actuate="onLoad" xlink:show="embed"/></g><g><use x="29.358" y="42.465" xmlns:xlink="http://www.w3.org/1999/xlink" xlink:href="#b" xlink:type="simple" xlink:actuate="onLoad" xlink:show="embed"/></g><g><use x="37.662" y="40.706" xmlns:xlink="http://www.w3.org/1999/xlink" xlink:href="#k" xlink:type="simple" xlink:actuate="onLoad" xlink:show="embed"/></g><g><use x="45.42" y="39.063" xmlns:xlink="http://www.w3.org/1999/xlink" xlink:href="#e" xlink:type="simple" xlink:actuate="onLoad" xlink:show="embed"/></g><g><use x="52.914" y="37.476" xmlns:xlink="http://www.w3.org/1999/xlink" xlink:href="#c" xlink:type="simple" xlink:actuate="onLoad" xlink:show="embed"/></g><g><use x="60.641" y="35.839" xmlns:xlink="http://www.w3.org/1999/xlink" xlink:href="#d" xlink:type="simple" xlink:actuate="onLoad" xlink:show="embed"/></g></svg>